<svg width="90" height="70" viewBox="0 0 90 70" fill="none" xmlns="http://www.w3.org/2000/svg">
<path d="M69.7447 14.0023C77.4754 27.3923 72.8876 44.514 59.4977 52.2447C46.1077 59.9754 28.986 55.3876 21.2553 41.9977C13.5247 28.6077 18.1124 11.486 31.5023 3.75534C44.8923 -3.97536 62.014 0.612377 69.7447 14.0023Z" fill="#FF8429"/>
<path d="M45.5 37C48.2614 37 50.5 34.7614 50.5 32H40.5C40.5 34.7614 42.7386 37 45.5 37Z" fill="white"/>
<path d="M37.5 25.9117L40.897 22.5147C41.701 21.7107 41.701 20.4071 40.897 19.603C40.0929 18.799 38.7893 18.799 37.9853 19.603L37.5 20.0883L37.0147 19.6031C36.2107 18.799 34.9071 18.799 34.103 19.6031C33.299 20.4071 33.299 21.7107 34.103 22.5148L37.5 25.9117Z" fill="white"/>
<path d="M53.5 25.9117L56.897 22.5147C57.701 21.7107 57.701 20.4071 56.897 19.603C56.0929 18.799 54.7893 18.799 53.9853 19.603L53.5 20.0883L53.0147 19.6031C52.2107 18.799 50.9071 18.799 50.103 19.6031C49.299 20.4071 49.299 21.7107 50.103 22.5148L53.5 25.9117Z" fill="white"/>
<rect x="0.5" y="46.1582" width="89" height="23" rx="11.5" fill="white"/>
<path d="M14.3087 60.6582L12.1417 57.2812C12.9447 57.1272 13.8687 56.5332 13.8687 55.2022C13.8687 53.6952 12.6587 53.0682 11.3057 53.0682H9.16067V60.6582H10.2277V57.3912H11.0417L13.0217 60.6582H14.3087ZM12.7687 55.2242C12.7687 55.6862 12.6257 55.9942 12.2847 56.2472C11.9437 56.4892 11.5367 56.5112 11.0087 56.5112H10.2277V53.9372H11.0087C11.5367 53.9372 11.9437 53.9592 12.2847 54.2122C12.6257 54.4542 12.7687 54.7732 12.7687 55.2242ZM20.5131 60.6582V59.7562H17.0481V57.1272H20.2381V56.2252H17.0481V53.9592H20.4251V53.0682H15.9811V60.6582H20.5131ZM27.3468 58.5462C27.3468 57.6442 26.8078 57.0172 26.0268 56.6542L24.6298 56.0712C24.1678 55.8842 23.6508 55.6202 23.6508 54.9162C23.6508 54.2122 24.2228 53.8602 24.9708 53.8602C25.7188 53.8602 26.2688 54.2782 26.6428 54.6742L27.2038 53.9482C26.9948 53.7282 26.2688 52.9692 25.0258 52.9692C23.8158 52.9692 22.5838 53.6402 22.5838 54.9932C22.5838 55.8842 23.0568 56.4892 23.8378 56.8522C24.1238 56.9952 24.6518 57.2042 25.0478 57.3582C25.4328 57.5122 26.2798 57.8202 26.2798 58.6122C26.2798 59.4152 25.6198 59.8882 24.7948 59.8882C23.9698 59.8882 23.2548 59.3162 22.8698 58.7992L22.2428 59.5142C22.6058 59.9322 23.3648 60.7902 24.6958 60.7902C26.0268 60.7902 27.3468 60.0202 27.3468 58.5462ZM33.9928 60.6582V59.7562H30.5278V57.1272H33.7178V56.2252H30.5278V53.9592H33.9048V53.0682H29.4608V60.6582H33.9928ZM41.3326 60.6582L39.1656 57.2812C39.9686 57.1272 40.8926 56.5332 40.8926 55.2022C40.8926 53.6952 39.6826 53.0682 38.3296 53.0682H36.1846V60.6582H37.2516V57.3912H38.0656L40.0456 60.6582H41.3326ZM39.7926 55.2242C39.7926 55.6862 39.6496 55.9942 39.3086 56.2472C38.9676 56.4892 38.5606 56.5112 38.0326 56.5112H37.2516V53.9372H38.0326C38.5606 53.9372 38.9676 53.9592 39.3086 54.2122C39.6496 54.4542 39.7926 54.7732 39.7926 55.2242ZM48.4992 53.0682H47.3772L45.2432 59.1182L43.1092 53.0682H41.9652L44.7592 60.6692H45.7052L48.4992 53.0682ZM54.7549 60.6582V59.7562H51.2899V57.1272H54.4799V56.2252H51.2899V53.9592H54.6669V53.0682H50.2229V60.6582H54.7549ZM65.0096 60.6582L64.3166 53.0682H63.0076L60.8186 58.9312H60.7966L58.6076 53.0682H57.2876L56.6056 60.6582H57.6616L58.1456 54.6632H58.1786L60.4996 60.7242H61.1046L63.4256 54.6632H63.4586L63.9536 60.6582H65.0096ZM74.5646 56.8742C74.5646 54.4432 72.7826 52.9582 70.6486 52.9582C68.5146 52.9582 66.7326 54.4432 66.7326 56.8742C66.7326 59.3052 68.5146 60.7902 70.6486 60.7902C72.7826 60.7902 74.5646 59.3052 74.5646 56.8742ZM73.4756 56.8522C73.4756 58.7002 72.1996 59.8222 70.6486 59.8222C69.1086 59.8222 67.8216 58.7002 67.8216 56.8522C67.8216 54.9932 69.0976 53.8822 70.6486 53.8822C72.1996 53.8822 73.4756 54.9932 73.4756 56.8522ZM81.2774 58.5462C81.2774 57.6442 80.7384 57.0172 79.9574 56.6542L78.5604 56.0712C78.0984 55.8842 77.5814 55.6202 77.5814 54.9162C77.5814 54.2122 78.1534 53.8602 78.9014 53.8602C79.6494 53.8602 80.1994 54.2782 80.5734 54.6742L81.1344 53.9482C80.9254 53.7282 80.1994 52.9692 78.9564 52.9692C77.7464 52.9692 76.5144 53.6402 76.5144 54.9932C76.5144 55.8842 76.9874 56.4892 77.7684 56.8522C78.0544 56.9952 78.5824 57.2042 78.9784 57.3582C79.3634 57.5122 80.2104 57.8202 80.2104 58.6122C80.2104 59.4152 79.5504 59.8882 78.7254 59.8882C77.9004 59.8882 77.1854 59.3162 76.8004 58.7992L76.1734 59.5142C76.5364 59.9322 77.2954 60.7902 78.6264 60.7902C79.9574 60.7902 81.2774 60.0202 81.2774 58.5462Z" fill="black"/>
<rect x="0.5" y="46.1582" width="89" height="23" rx="11.5" stroke="black"/>
</svg>
